<svg width="166" height="56" viewBox="0 0 166 56" fill="none" xmlns="http://www.w3.org/2000/svg">
<path d="M57.5781 18.549C58.4548 18.7699 59.1488 18.954 59.6966 19.175C60.208 19.3591 60.5367 19.6168 60.7559 19.8746C60.975 20.1324 61.0481 20.5006 61.0481 20.9793C61.0481 21.7158 60.7924 22.2313 60.281 22.4891C59.7332 22.7837 58.8931 22.931 57.7973 22.931C57.1398 22.931 56.5189 22.8573 55.898 22.7468C55.277 22.6364 54.6926 22.4891 54.1447 22.2681L53.889 22.1577V24.0725L53.9986 24.1093C54.9848 24.5144 56.3363 24.7353 57.9434 24.7353C59.6236 24.7353 60.902 24.4039 61.7421 23.7779C62.6187 23.1151 63.057 22.1577 63.057 20.9793C63.057 20.3165 62.9109 19.7641 62.6918 19.2486C62.4361 18.7331 61.9978 18.2912 61.3768 17.923C60.7924 17.5547 59.9158 17.2601 58.8565 17.0024C57.9799 16.7814 57.3225 16.5973 56.8111 16.4132C56.3728 16.2291 56.0441 16.0081 55.8614 15.7872C55.6788 15.5662 55.6057 15.2348 55.6057 14.8298C55.6057 14.1301 55.8614 13.6146 56.3728 13.32C56.9207 13.0254 57.7242 12.8781 58.7835 12.8781C59.3679 12.8781 59.9523 12.915 60.5002 13.0254C61.0481 13.0991 61.5595 13.2464 62.0343 13.4305L62.29 13.541V11.6629L62.1439 11.6261C61.7786 11.5157 61.3038 11.3684 60.6463 11.2579C59.9888 11.1474 59.2949 11.1106 58.5278 11.1106C56.8841 11.1106 55.6423 11.442 54.8022 12.1048C53.9621 12.7677 53.5603 13.7251 53.5603 14.8666C53.5603 15.8608 53.8525 16.671 54.4734 17.2601C55.1309 17.7388 56.1536 18.2175 57.5781 18.549Z" fill="#5F555D"/>
<path d="M68.2438 24.5512H69.4126L72.1885 15.1981L74.5992 23.7411C74.7454 24.2198 75.1837 24.5512 75.6585 24.5512H76.8639L79.932 11.1843H77.9231L75.622 21.2371L73.1017 12.2153C72.9191 11.6262 72.3712 11.1843 71.7502 11.1843H71.1293V12.7677L68.5725 21.2371L66.4905 12.0312C66.3809 11.5157 65.9426 11.1475 65.3947 11.1475H64.2625L67.148 23.6307C67.2941 24.2198 67.7324 24.5512 68.2438 24.5512Z" fill="#5F555D"/>
<path d="M83.0366 11.2209H82.0869V24.5879H84.1324V12.3257C84.1689 11.6997 83.6575 11.2209 83.0366 11.2209Z" fill="#5F555D"/>
<path d="M94.5423 23.7779C95.4189 23.1151 95.8572 22.1577 95.8572 20.9793C95.8572 20.3165 95.7111 19.7641 95.4919 19.2486C95.2362 18.7331 94.7979 18.2912 94.177 17.923C93.5926 17.5547 92.716 17.2601 91.6567 17.0024C90.7801 16.7814 90.1226 16.5973 89.6113 16.4132C89.173 16.2291 88.8442 16.0081 88.6616 15.7872C88.479 15.5662 88.4059 15.2348 88.4059 14.8298C88.4059 14.1301 88.6616 13.6146 89.173 13.32C89.7208 13.0254 90.5244 12.8781 91.5837 12.8781C92.1681 12.8781 92.7525 12.915 93.3004 13.0254C93.8483 13.0991 94.3596 13.2464 94.8345 13.4305L95.0901 13.541V11.6629L94.944 11.6261C94.5788 11.5157 94.1039 11.3684 93.4465 11.2579C92.789 11.1474 92.095 11.1106 91.328 11.1106C89.6843 11.1106 88.4424 11.442 87.6023 12.1048C86.7623 12.7677 86.3605 13.7251 86.3605 14.8666C86.3605 15.8608 86.6527 16.671 87.2736 17.2601C87.858 17.8493 88.9173 18.328 90.3418 18.6594C91.2184 18.8804 91.9124 19.0645 92.4603 19.2854C92.9716 19.4695 93.3004 19.7273 93.5195 19.9851C93.7387 20.2428 93.8117 20.6111 93.8117 21.0898C93.8117 21.8263 93.5561 22.3418 93.0447 22.5996C92.4968 22.8941 91.6567 23.0414 90.5609 23.0414C89.9035 23.0414 89.2825 22.9678 88.6616 22.8573C88.0407 22.7468 87.4562 22.5996 86.9084 22.3786L86.6527 22.2681V24.183L86.7623 24.2198C87.7485 24.6248 89.0999 24.8458 90.707 24.8458C92.4238 24.7721 93.7022 24.4407 94.5423 23.7779Z" fill="#5F555D"/>
<path d="M101.08 18.549C101.957 18.7699 102.651 18.954 103.199 19.175C103.71 19.3591 104.039 19.6168 104.258 19.8746C104.477 20.1324 104.55 20.5006 104.55 20.9793C104.55 21.7158 104.295 22.2313 103.783 22.4891C103.235 22.7837 102.395 22.931 101.299 22.931C100.642 22.931 100.021 22.8573 99.4001 22.7468C98.7792 22.6364 98.1948 22.4891 97.6469 22.2681L97.3912 22.1577V24.0725L97.5008 24.1093C98.487 24.5144 99.8385 24.7353 101.446 24.7353C103.126 24.7353 104.404 24.4039 105.244 23.7779C106.121 23.1151 106.559 22.1577 106.559 20.9793C106.559 20.3165 106.413 19.7641 106.194 19.2486C105.938 18.7331 105.5 18.2912 104.879 17.923C104.295 17.5547 103.418 17.2601 102.359 17.0024C101.482 16.7814 100.825 16.5973 100.313 16.4132C99.875 16.2291 99.5463 16.0081 99.3636 15.7872C99.181 15.5662 99.1079 15.2348 99.1079 14.8298C99.1079 14.1301 99.3636 13.6146 99.875 13.32C100.423 13.0254 101.226 12.8781 102.286 12.8781C102.87 12.8781 103.455 12.915 104.002 13.0254C104.55 13.0991 105.062 13.2464 105.536 13.4305L105.792 13.541V11.6629L105.646 11.6261C105.281 11.5157 104.806 11.3684 104.149 11.2579C103.491 11.1474 102.797 11.1106 102.03 11.1106C100.386 11.1106 99.1445 11.442 98.3044 12.1048C97.4643 12.7677 97.0625 13.7251 97.0625 14.8666C97.0625 15.8608 97.3547 16.671 97.9756 17.2601C98.5966 17.7388 99.6193 18.2175 101.08 18.549Z" fill="#5F555D"/>
<path d="M68.4994 29.2277L62.5091 41.6004L56.5189 29.2277C56.2997 28.7858 55.8249 28.4912 55.3135 28.4912H53.5603V46.0561C53.5603 46.7925 54.1447 47.3817 54.8752 47.3817H55.898V32.2472L61.669 44.1044H63.2762L69.0107 32.2472V46.0561C69.0107 46.7925 69.5951 47.3817 70.3257 47.3817H71.3484V28.4912H69.5951C69.1934 28.4912 68.7185 28.7858 68.4994 29.2277Z" fill="#5F555D"/>
<path d="M84.9724 28.4912H73.6129V47.4185H86.2874V46.8662C86.2874 46.1297 85.703 45.5405 84.9724 45.5405H76.0236V38.9123H83.1462V37.0343H76.0236V30.3692H86.3239V29.78C86.2874 29.0804 85.703 28.4912 84.9724 28.4912Z" fill="#5F555D"/>
<path d="M95.9668 28.4912H88.6251V47.4185H95.9668C98.7428 47.4185 100.752 46.6821 101.994 45.1723C103.235 43.6625 103.856 41.3058 103.856 38.0653C103.856 34.6407 103.235 32.2104 101.957 30.7374C100.679 29.2277 98.6697 28.4912 95.9668 28.4912ZM100.788 42.7051C100.35 43.773 99.6924 44.5095 98.8158 44.9145C97.9392 45.3196 96.8434 45.5037 95.5285 45.5037H90.9993V30.3692H95.5285C96.953 30.3692 98.0853 30.5902 98.9619 31.032C99.8385 31.4739 100.459 32.2472 100.861 33.3519C101.263 34.4566 101.446 36.04 101.446 38.0285C101.446 40.0538 101.227 41.6004 100.788 42.7051Z" fill="#5F555D"/>
<path d="M107.217 28.4912H106.157V47.4185H108.532V29.8169C108.532 29.0804 107.947 28.4912 107.217 28.4912Z" fill="#5F555D"/>
<path d="M119.818 28.1968C117.736 28.1968 116.019 28.6018 114.705 29.4488C113.39 30.2957 112.403 31.4741 111.782 32.9838C111.161 34.4936 110.833 36.298 110.833 38.3601C110.833 40.2381 111.161 41.8951 111.819 43.2944C112.476 44.6937 113.463 45.7984 114.814 46.5717C116.129 47.345 117.809 47.7501 119.855 47.7501C120.95 47.7501 121.937 47.6764 122.813 47.5292C123.69 47.3819 124.53 47.1977 125.26 46.9768V44.841C124.493 45.1356 123.653 45.3566 122.74 45.5039C121.827 45.6512 120.95 45.7248 120.074 45.7248C117.7 45.7248 115.983 45.0988 114.887 43.8468C113.791 42.5948 113.243 40.7904 113.243 38.4706C113.243 36.7767 113.463 35.3406 113.901 34.1254C114.339 32.9102 115.033 31.9896 116.019 31.3268C117.006 30.664 118.357 30.3694 120.037 30.3694C121.023 30.3694 121.937 30.443 122.813 30.6271C123.69 30.8113 124.53 31.0322 125.297 31.3268V29.2278C124.53 28.9701 123.69 28.7491 122.813 28.565C121.9 28.2704 120.914 28.1968 119.818 28.1968Z" fill="#5F555D"/>
<path d="M135.415 28.4912H133.515L126.393 47.4185H128.876L130.849 42.2264H138.994L140.966 47.4185H143.414L136.62 29.375C136.474 28.8226 135.962 28.4912 135.415 28.4912ZM131.251 40.2748L134.903 30.5533L138.556 40.2748H131.251Z" fill="#5F555D"/>
<path d="M155.504 45.5037H146.847V29.8169C146.847 29.0804 146.263 28.4912 145.532 28.4912H144.473V47.4185H156.819V46.8662C156.819 46.0929 156.234 45.5037 155.504 45.5037Z" fill="#5F555D"/>
<path d="M22.8423 24.772H10.9714C9.98521 24.772 9.18164 23.9619 9.18164 22.9677V11H21.0525C22.0387 11 22.8423 11.8101 22.8423 12.8044V24.772ZM45.3057 22.9677V11H33.4348C32.4486 11 31.645 11.8101 31.645 12.8044V24.772H43.5159C44.5021 24.772 45.3057 23.9619 45.3057 22.9677ZM22.8423 45.5773V33.6465H10.9714C9.98521 33.6465 9.18164 34.4566 9.18164 35.4509V47.4185H21.0525C22.0387 47.3817 22.8423 46.5716 22.8423 45.5773ZM45.3057 35.414C45.3057 34.4198 44.5021 33.6097 43.5159 33.6097H31.645V45.5773C31.645 46.5716 32.4486 47.3817 33.4348 47.3817H45.3057V35.414Z" fill="#D50032"/>
</svg>
